<svg width="16" height="16" viewBox="0 0 16 16" fill="none" xmlns="http://www.w3.org/2000/svg">
<path d="M11.4512 1.82006V1.80876C11.445 1.80876 11.4392 1.8096 11.433 1.8097V1.8096C10.8578 1.47405 10.2403 1.21705 9.59692 1.04551L9.59022 1.02553C9.58112 1.02857 9.57254 1.03275 9.56354 1.03599H9.56343C7.98044 0.620115 6.30467 0.734133 4.79261 1.36056C3.28046 1.9869 2.01518 3.09125 1.19044 4.50447C0.365627 5.91779 0.026625 7.56242 0.225322 9.18646C0.335396 9.79543 0.484915 10.3965 0.673155 10.986L0.665203 10.9978C0.67033 11.0012 0.676085 11.0033 0.681316 11.0067C1.26118 12.4999 2.30427 13.7682 3.65749 14.6256C5.0109 15.4831 6.6034 15.8846 8.20171 15.7714C9.79997 15.6581 11.3199 15.0361 12.5386 13.9963C13.7575 12.9566 14.6112 11.5541 14.9745 9.99396C15.3379 8.43398 15.1919 6.79864 14.5578 5.3275C13.9237 3.85653 12.8349 2.62729 11.4512 1.81969L11.4512 1.82006ZM14.5967 7.28608H14.5966C14.537 7.38012 14.465 7.46568 14.3825 7.54036C13.4963 8.31355 11.5885 7.63869 10.217 6.06719C9.79922 5.59189 9.45751 5.05488 9.20398 4.4751C9.22198 3.91749 9.44788 3.38666 9.83742 2.98709C10.227 2.58741 10.752 2.348 11.3092 2.31568C12.1887 2.85195 12.9392 3.57536 13.5074 4.43442C14.0756 5.29349 14.4475 6.26708 14.5966 7.28619L14.5967 7.28608ZM12.6699 8.29106C12.6725 9.33192 12.3461 10.347 11.7375 11.1916C10.8311 10.8054 9.57912 10.7265 8.25076 11.0443C7.11833 11.2807 6.08247 11.8503 5.27646 12.6801C4.40383 12.1999 3.69274 11.4724 3.23278 10.5891C4.04597 9.79433 4.60952 8.77953 4.85415 7.66929C5.13018 6.64999 5.13393 5.57617 4.86503 4.55511C4.83186 4.44371 4.79441 4.33765 4.75402 4.23544V4.23554C5.60144 3.62039 6.62244 3.29028 7.66966 3.2928C7.90288 3.29468 8.13579 3.31267 8.36652 3.34677C8.54335 4.487 9.05647 5.54866 9.84006 6.39589C10.5747 7.28979 11.56 7.94353 12.6692 8.27321C12.6692 8.27928 12.6696 8.28524 12.6696 8.29131L12.6699 8.29106ZM8.36725 11.5306C9.7712 11.1946 11.1342 11.3579 11.9322 11.8689C9.71198 11.5022 6.89001 12.1193 5.14732 13.9038C5.40848 12.9268 6.70321 11.929 8.36725 11.5306ZM1.08364 10.6605C0.973044 10.3547 0.884211 10.0414 0.817665 9.7231C1.0624 9.86128 1.33506 9.94265 1.61548 9.96106C1.66319 9.96452 1.71321 9.9664 1.76553 9.9664C2.45411 9.9346 3.11591 9.68952 3.65896 9.26497C3.00836 10.3266 2.11208 10.9525 1.33151 10.7559C1.24561 10.7333 1.16253 10.7013 1.08364 10.6605V10.6605ZM8.90645 3.50298C8.7744 2.75804 8.89902 2.1111 9.323 1.74155C9.40702 1.67084 9.50024 1.61184 9.59996 1.56613C9.94483 1.66498 10.2815 1.7905 10.6069 1.94144C9.83852 2.18756 9.2169 2.75847 8.90648 3.50298L8.90645 3.50298ZM8.94788 1.41237C8.56777 1.7906 8.35243 2.30355 8.34855 2.83973C8.12349 2.81023 7.89686 2.79465 7.6699 2.79298C6.54626 2.79005 5.4492 3.13522 4.5298 3.78111C4.27659 3.30801 3.84279 2.95739 3.32706 2.80896C4.10889 2.18671 5.01551 1.73996 5.98534 1.49897C6.95518 1.25808 7.96551 1.22847 8.94786 1.41236L8.94788 1.41237ZM2.80991 3.26198C2.93902 3.2511 3.06908 3.26062 3.19517 3.29033C3.73319 3.42432 4.15611 3.9242 4.38598 4.69739C4.62957 5.63282 4.62381 6.61573 4.36924 7.54809C4.31546 7.76126 4.2507 7.97149 4.17546 8.17807C3.27562 9.0568 2.38247 9.51536 1.651 9.46234C1.28583 9.4387 0.945251 9.26998 0.705223 8.99374C0.682099 8.76257 0.670275 8.52837 0.669962 8.29105C0.669648 7.35197 0.859033 6.4224 1.22671 5.55817C1.59448 4.69399 2.13292 3.91295 2.80988 3.26181L2.80991 3.26198ZM1.33492 11.2641C1.43379 11.2822 1.53403 11.2919 1.6346 11.2929C2.0636 11.282 2.47993 11.1458 2.83243 10.9011C3.32776 11.8128 4.06876 12.5676 4.97142 13.0797C4.66266 13.5207 4.54148 14.066 4.63461 14.5962C3.18619 13.8948 2.02173 12.7189 1.33486 11.264L1.33492 11.2641ZM7.67004 15.289C6.85034 15.2898 6.03693 15.146 5.26727 14.8643C5.22562 14.7924 5.1912 14.7167 5.16462 14.6379C6.90163 12.4685 10.2416 11.8558 12.531 12.5121H12.5311C12.5672 12.5864 12.5956 12.6644 12.6155 12.7446C12.6519 12.9008 12.6578 13.0624 12.6331 13.2207C11.9838 13.8764 11.2107 14.3969 10.3588 14.752C9.50692 15.107 8.59296 15.2895 7.67008 15.289L7.67004 15.289ZM13.1127 12.6853C13.1088 12.6664 13.1065 12.6472 13.1021 12.6284L13.102 12.6285C12.9663 12.1228 12.636 11.6913 12.183 11.4284C12.8144 10.5283 13.1576 9.45793 13.1674 8.35862C13.2482 8.36573 13.3284 8.37023 13.407 8.37023C13.8606 8.38236 14.3043 8.23603 14.6616 7.95644C14.6669 8.06742 14.6701 8.17892 14.6701 8.29115C14.6714 9.8912 14.1214 11.4428 13.1126 12.6853L13.1127 12.6853Z" fill="#4A2B10"/>
</svg>
