<svg width="47" height="46" viewBox="0 0 47 46" fill="none" xmlns="http://www.w3.org/2000/svg">
<g clip-path="url(#clip0_640_17)">
<path d="M43.9139 24.056C44.2213 23.8475 44.8615 22.8712 44.4032 22.6411C43.2669 22.0708 39.926 22.5611 39.926 22.5611L28.0348 20.9024C27.4914 20.7081 27.1429 21.0039 27.1429 21.0039C25.6987 23.1305 21.658 23.2365 21.658 23.2365C21.0736 23.17 18.5556 22.6995 17.6847 22.5359C17.6059 22.3574 17.4644 22.2151 17.2836 22.1347C17.2485 21.8907 17.0879 21.6995 16.8569 21.6627C16.6175 21.6253 16.3735 21.7643 16.233 21.994L15.7514 21.9502C15.7341 21.6602 15.5752 21.4302 15.3331 21.3919C15.1169 21.3582 14.8915 21.4865 14.7412 21.7038C13.5698 21.2536 11.608 20.9041 9.14381 19.9997C5.54668 18.6788 1.74872 22.664 1.74872 22.664C1.74872 22.664 4.70677 26.9098 8.54255 25.7112C10.2894 25.1652 12.6052 24.8799 14.1779 24.3799C14.2428 24.5626 14.3767 24.6947 14.5537 24.7227C14.8428 24.7684 15.1459 24.5251 15.2671 24.1676L15.5328 24.1919C15.8015 26.3077 14.1078 27.0553 14.1078 27.0553C14.0371 27.1294 14.0141 27.1791 14.0216 27.2125C13.9912 27.2382 13.9725 27.2747 13.9816 27.3192C14.0081 27.4414 14.1547 27.4479 14.2535 27.476C14.3478 27.5019 14.4408 27.5345 14.5218 27.5886C14.5963 27.6381 14.6735 27.7191 14.6292 27.8187C14.5273 28.0501 14.2224 27.9765 14.06 27.925C13.9655 27.8952 13.6848 27.8187 13.7374 28.0208C13.7821 28.1919 14.0775 28.2274 14.2232 28.2495C14.3459 28.268 14.4814 28.27 14.6018 28.2154C14.7019 28.1698 14.7972 28.0862 14.8493 27.9893C15.0627 27.5909 14.6713 27.358 14.4001 27.2499C14.4065 27.2487 14.4099 27.248 14.4099 27.248C15.7021 26.6784 15.9265 25.3669 15.923 24.5131C15.9894 24.571 16.0698 24.6118 16.1626 24.6263C16.4022 24.6649 16.647 24.5248 16.7872 24.2939C17.0482 24.2765 17.29 24.1443 17.4549 23.9436C18.5093 24.0508 20.261 24.2549 21.5781 24.5391C23.5916 24.9733 27.61 22.5561 27.61 22.5561L40.0176 23.9163C41.1443 23.9939 42.6142 24.6064 42.6142 24.6064C43.2076 24.5974 43.9138 24.0564 43.9138 24.0564L43.9139 24.056ZM14.7938 24.1259C14.5581 24.1039 14.4118 23.8213 14.4673 23.4937L14.6295 22.5384C14.6847 22.2111 14.9214 21.9634 15.1569 21.9853C15.3925 22.0071 15.5388 22.2897 15.4835 22.6175L15.3211 23.5726C15.2661 23.8995 15.0295 24.1479 14.7939 24.1259L14.7938 24.1259ZM16.4294 23.9945C16.193 23.9727 16.0376 23.7437 16.0825 23.4825L16.2117 22.7216C16.2552 22.4608 16.4828 22.2668 16.7183 22.2886C16.9541 22.3106 17.1095 22.5397 17.0652 22.8007L16.9363 23.5618C16.8921 23.8223 16.665 24.0163 16.4295 23.9945L16.4294 23.9945Z" fill="#2D1300"/>
</g>
<defs>
<clipPath id="clip0_640_17">
<rect width="31.1397" height="33.6872" fill="white" transform="translate(24.1814) rotate(45)"/>
</clipPath>
</defs>
</svg>
