<svg width="43" height="18" viewBox="0 0 43 18" fill="none" xmlns="http://www.w3.org/2000/svg">
<path d="M18.0939 12.4909C18.0822 12.9014 17.8625 13.422 17.4449 13.991C17.0204 14.5692 16.4118 15.1696 15.6849 15.7134C14.2268 16.8044 12.3327 17.6389 10.562 17.6389C9.65184 17.6389 9.10247 17.5281 8.7764 17.357C8.47487 17.1989 8.3546 16.9848 8.31643 16.6987C8.2747 16.3859 8.33326 16 8.4143 15.5174C8.41776 15.4968 8.42126 15.476 8.42479 15.4551C8.50116 15.0014 8.5884 14.4832 8.5884 13.9383C8.5884 13.3641 8.47866 12.8209 8.38367 12.351C8.2855 11.8654 8.20946 11.4811 8.23979 11.1689C8.25427 11.02 8.29257 10.8993 8.35801 10.7986C8.42295 10.6987 8.52405 10.6039 8.68675 10.5207C9.0227 10.3489 9.59826 10.2377 10.562 10.2377C12.3975 10.2377 14.1786 10.3612 15.563 10.7233C16.9466 11.0853 17.8409 11.6602 18.0939 12.4909Z" fill="#A76029" fill-opacity="0.7" stroke="black" stroke-width="0.5"/>
<path d="M0.249973 13.9383C0.249973 13.2262 0.662116 12.5553 1.42268 12.0516C2.18354 11.5477 3.27732 11.2253 4.57714 11.2253C5.23572 11.2253 5.6132 11.3087 5.82532 11.4267C5.92615 11.4827 5.9868 11.5451 6.02582 11.6101C6.06573 11.6765 6.09103 11.7592 6.10097 11.8663C6.12198 12.0926 6.07225 12.3738 6.00512 12.7399L6.00422 12.7448C5.9399 13.0956 5.86482 13.5051 5.86482 13.9383C5.86482 14.3714 5.9399 14.781 6.00422 15.1317L6.00512 15.1367C6.07225 15.5028 6.12198 15.784 6.10097 16.0103C6.09103 16.1174 6.06573 16.2 6.02582 16.2665C5.9868 16.3315 5.92615 16.3938 5.82532 16.4499C5.6132 16.5679 5.23572 16.6512 4.57714 16.6512C3.27732 16.6512 2.18354 16.3289 1.42268 15.825C0.662116 15.3213 0.249973 14.6504 0.249973 13.9383Z" fill="#A76029" fill-opacity="0.7" stroke="black" stroke-width="0.5"/>
<path d="M42.5531 4.58942C42.5418 4.97926 42.3348 5.36929 41.9341 5.74715C41.522 6.1359 40.9241 6.49201 40.198 6.79384C38.7467 7.39709 36.8342 7.76235 35.0212 7.76235C34.1111 7.76235 33.5617 7.65152 33.2356 7.48049C32.9341 7.32234 32.8138 7.10831 32.7757 6.82218C32.7339 6.50936 32.7925 6.1235 32.8735 5.64089C32.877 5.62024 32.8805 5.59946 32.884 5.57853C32.9604 5.12488 33.0476 4.60668 33.0476 4.06173C33.0476 3.48759 32.9379 2.94435 32.8429 2.47444C32.7447 1.98881 32.6687 1.60455 32.699 1.29241C32.7135 1.14345 32.7518 1.02274 32.8172 0.922057C32.8822 0.822149 32.9833 0.727366 33.146 0.64415C33.4819 0.472323 34.0575 0.361115 35.0212 0.361115C36.8098 0.361115 38.572 0.961524 39.9552 1.80598C41.3318 2.64636 42.286 3.69825 42.5531 4.58942Z" fill="#A76029" fill-opacity="0.7" stroke="black" stroke-width="0.5"/>
<path d="M24.7092 4.06174C24.7092 3.34964 25.1213 2.67873 25.8819 2.17505C26.6428 1.67117 27.7365 1.34878 29.0364 1.34878C29.695 1.34878 30.0724 1.43217 30.2845 1.55012C30.3854 1.60618 30.446 1.66855 30.485 1.73352C30.525 1.79998 30.5503 1.88265 30.5602 1.98972C30.5812 2.21605 30.5315 2.49722 30.4644 2.86334L30.4634 2.86828C30.3991 3.21907 30.324 3.62858 30.324 4.06174C30.324 4.4949 30.3991 4.90441 30.4634 5.2552L30.4644 5.26014C30.5315 5.62626 30.5812 5.90743 30.5602 6.13376C30.5503 6.24083 30.525 6.3235 30.485 6.38997C30.446 6.45493 30.3854 6.5173 30.2845 6.57337C30.0724 6.69131 29.695 6.7747 29.0364 6.7747C27.7365 6.7747 26.6428 6.45231 25.8819 5.94844C25.1213 5.44475 24.7092 4.77384 24.7092 4.06174Z" fill="#A76029" fill-opacity="0.7" stroke="black" stroke-width="0.5"/>
</svg>
