<svg width="129" height="40" viewBox="0 0 129 40" fill="none" xmlns="http://www.w3.org/2000/svg">
<path d="M29.7936 25.2512C28.1358 26.6621 25.8732 27.4664 23.4995 27.4688C21.7304 27.4687 20.006 27.0219 18.5452 26.1911C17.0845 25.3605 15.9594 24.1876 15.299 22.8307C14.6395 21.4756 14.4689 19.9907 14.8035 18.5592C15.1384 17.1263 15.968 15.7973 17.2032 14.746C18.4392 13.6941 20.0227 12.9709 21.7568 12.6774C23.4907 12.3838 25.2874 12.5349 26.9169 13.1094C28.5465 13.6839 29.927 14.6525 30.892 15.8816C31.8558 17.1092 32.3631 18.5421 32.3633 19.9993C32.3606 21.9512 31.4489 23.8424 29.7936 25.2512ZM21.9805 2.53125H25.0195V8.71875H21.9805V2.53125ZM25.0195 31.2812V37.4688H21.9805V31.2812H25.0195ZM31.8011 11.1607L37.0014 6.73492L39.086 8.50906L33.8857 12.9348L31.8011 11.1607ZM9.99925 33.2643L7.91464 31.4902L13.1149 27.0644L15.1995 28.8385L9.99925 33.2643ZM36.668 18.7812H44.1133V21.2188H36.668V18.7812ZM2.88672 18.7812H10.332V21.2188H2.88672V18.7812ZM37.0018 33.2648L31.8015 28.8391L33.886 27.0649L39.0863 31.4907L37.0018 33.2648ZM13.1137 12.9351L7.91345 8.50937L9.99806 6.73524L15.1983 11.161L13.1137 12.9351Z" fill="#FFC700" stroke="#2D1300"/>
<path d="M100.388 0.989179C99.5879 3.32158 99.2694 5.91407 99.2694 8.46161C99.2694 20.2083 108.791 29.7304 120.538 29.7304C123.083 29.7304 125.678 29.4119 128.011 28.6113C124.645 35.1543 117.66 39.5 109.769 39.5C98.575 39.5 89.4998 30.4248 89.4998 19.2304C89.4998 11.3398 93.8454 4.35511 100.388 0.989179Z" fill="#776353" fill-opacity="0.5" stroke="#776353"/>
</svg>
