<svg width="40" height="35" viewBox="0 0 40 35" fill="none" xmlns="http://www.w3.org/2000/svg">
<mask id="path-1-inside-1_15_290" fill="white">
<path d="M33.5516 2.19227C31.7078 2.63866 17.493 6.21249 13.9781 7.07518C13.9128 7.09122 13.8551 7.12545 13.814 7.17268C13.7728 7.21992 13.7504 7.2776 13.75 7.337V24.2218C13.7501 24.2501 13.7401 24.2777 13.7215 24.3008C13.7029 24.324 13.6766 24.3415 13.6461 24.351L11.4703 25.0038C9.98594 25.5124 6.25 26.144 6.25 29.05C6.25 31.4795 8.17422 32.5732 9.83281 32.7605C10.0343 32.7922 10.2383 32.8105 10.443 32.8152C11.0187 32.8152 13.2852 32.3312 14.607 31.5793C16.25 30.6421 16.25 30.625 16.25 28.164V13.8086C16.25 13.7471 16.2984 13.7512 16.3656 13.7354L31.0531 10.1862C31.0768 10.1805 31.1016 10.1798 31.1257 10.184C31.1497 10.1883 31.1723 10.1975 31.1915 10.2108C31.2108 10.2241 31.2262 10.2412 31.2365 10.2607C31.2468 10.2801 31.2517 10.3015 31.2508 10.3229V20.9556C31.2507 20.9841 31.2404 21.0119 31.2214 21.0351C31.2023 21.0582 31.1754 21.0756 31.1445 21.0848C30.4492 21.2898 29.6422 21.5291 29.0758 21.7082C26.6711 22.4683 23.75 22.9448 23.75 25.7031C23.75 28.3356 25.9578 29.4342 27.3672 29.5196C27.9238 29.5565 28.4834 29.5336 29.0336 29.4513C29.7367 29.3569 30.9156 29.0479 32.0133 28.4354C33.75 27.4661 33.75 27.447 33.75 24.6094V2.32421C33.7501 2.30308 33.7445 2.28222 33.7338 2.26329C33.7231 2.24435 33.7075 2.22784 33.6883 2.21506C33.6691 2.20227 33.6467 2.19356 33.623 2.18961C33.5993 2.18566 33.5748 2.18657 33.5516 2.19227Z"/>
</mask>
<path d="M33.5516 2.19227C31.7078 2.63866 17.493 6.21249 13.9781 7.07518C13.9128 7.09122 13.8551 7.12545 13.814 7.17268C13.7728 7.21992 13.7504 7.2776 13.75 7.337V24.2218C13.7501 24.2501 13.7401 24.2777 13.7215 24.3008C13.7029 24.324 13.6766 24.3415 13.6461 24.351L11.4703 25.0038C9.98594 25.5124 6.25 26.144 6.25 29.05C6.25 31.4795 8.17422 32.5732 9.83281 32.7605C10.0343 32.7922 10.2383 32.8105 10.443 32.8152C11.0187 32.8152 13.2852 32.3312 14.607 31.5793C16.25 30.6421 16.25 30.625 16.25 28.164V13.8086C16.25 13.7471 16.2984 13.7512 16.3656 13.7354L31.0531 10.1862C31.0768 10.1805 31.1016 10.1798 31.1257 10.184C31.1497 10.1883 31.1723 10.1975 31.1915 10.2108C31.2108 10.2241 31.2262 10.2412 31.2365 10.2607C31.2468 10.2801 31.2517 10.3015 31.2508 10.3229V20.9556C31.2507 20.9841 31.2404 21.0119 31.2214 21.0351C31.2023 21.0582 31.1754 21.0756 31.1445 21.0848C30.4492 21.2898 29.6422 21.5291 29.0758 21.7082C26.6711 22.4683 23.75 22.9448 23.75 25.7031C23.75 28.3356 25.9578 29.4342 27.3672 29.5196C27.9238 29.5565 28.4834 29.5336 29.0336 29.4513C29.7367 29.3569 30.9156 29.0479 32.0133 28.4354C33.75 27.4661 33.75 27.447 33.75 24.6094V2.32421C33.7501 2.30308 33.7445 2.28222 33.7338 2.26329C33.7231 2.24435 33.7075 2.22784 33.6883 2.21506C33.6691 2.20227 33.6467 2.19356 33.623 2.18961C33.5993 2.18566 33.5748 2.18657 33.5516 2.19227Z" fill="#FFC700"/>
<path d="M33.5516 2.19227L33.7869 3.1642L33.7899 3.16347L33.5516 2.19227ZM13.9781 7.07518L14.2164 8.04638L14.2165 8.04636L13.9781 7.07518ZM13.75 7.337L12.75 7.33087V7.337H13.75ZM13.75 24.2218H12.75L12.75 24.2249L13.75 24.2218ZM13.6461 24.351L13.9335 25.3088L13.9431 25.3058L13.6461 24.351ZM11.4703 25.0038L11.1829 24.046L11.1644 24.0515L11.1462 24.0578L11.4703 25.0038ZM9.83281 32.7605L9.98792 31.7726L9.96654 31.7693L9.94503 31.7668L9.83281 32.7605ZM10.443 32.8152L10.4197 33.815L10.4313 33.8152H10.443V32.8152ZM14.607 31.5793L15.1015 32.4485L15.1025 32.4479L14.607 31.5793ZM16.3656 13.7354L16.5935 14.7092L16.6005 14.7075L16.3656 13.7354ZM31.0531 10.1862L30.8187 9.21407L30.8182 9.2142L31.0531 10.1862ZM31.2508 10.3229L30.2516 10.2819L30.2508 10.3024V10.3229H31.2508ZM31.2508 20.9556L32.2508 20.9583V20.9556H31.2508ZM31.1445 21.0848L31.4274 22.0439L31.4279 22.0437L31.1445 21.0848ZM29.0758 21.7082L29.3772 22.6617L29.3773 22.6617L29.0758 21.7082ZM27.3672 29.5196L27.4334 28.5218L27.4277 28.5214L27.3672 29.5196ZM29.0336 29.4513L28.9006 28.4601L28.8931 28.4611L28.8856 28.4623L29.0336 29.4513ZM32.0133 28.4354L32.5006 29.3087L32.5006 29.3086L32.0133 28.4354ZM33.75 2.32421L32.75 2.32176V2.32421H33.75ZM33.3163 1.22035C31.479 1.66516 17.2322 5.24681 13.7398 6.10401L14.2165 8.04636C17.7538 7.17816 31.9366 3.61216 33.7869 3.16419L33.3163 1.22035ZM13.7398 6.10399C13.49 6.16529 13.2468 6.30139 13.06 6.51575L14.5679 7.82961C14.4635 7.9495 14.3355 8.01715 14.2164 8.04638L13.7398 6.10399ZM13.06 6.51575C12.871 6.73273 12.7519 7.0182 12.75 7.33087L14.75 7.34313C14.7488 7.537 14.6747 7.70711 14.5679 7.82961L13.06 6.51575ZM12.75 7.337V24.2218H14.75V7.337H12.75ZM12.75 24.2249C12.7493 24.0123 12.825 23.8199 12.9423 23.6741L14.5008 24.9275C14.6553 24.7354 14.7509 24.4879 14.75 24.2186L12.75 24.2249ZM12.9423 23.6741C13.0576 23.5307 13.2046 23.441 13.349 23.3961L13.9431 25.3058C14.1486 25.2419 14.3482 25.1172 14.5008 24.9275L12.9423 23.6741ZM13.3587 23.3931L11.1829 24.046L11.7577 25.9616L13.9335 25.3088L13.3587 23.3931ZM11.1462 24.0578C10.5673 24.2561 9.04479 24.6125 7.84056 25.2415C6.5739 25.9031 5.25 27.0556 5.25 29.05H7.25C7.25 28.1384 7.79407 27.5221 8.76647 27.0143C9.8013 26.4738 10.889 26.2601 11.7944 25.9498L11.1462 24.0578ZM5.25 29.05C5.25 30.5618 5.86219 31.7146 6.76204 32.4996C7.63502 33.2612 8.73534 33.643 9.7206 33.7542L9.94503 31.7668C9.2717 31.6908 8.58061 31.432 8.07682 30.9925C7.59992 30.5765 7.25 29.9677 7.25 29.05H5.25ZM9.6777 33.7484C9.92301 33.7869 10.171 33.8092 10.4197 33.815L10.4662 31.8155C10.3056 31.8118 10.1457 31.7974 9.98792 31.7726L9.6777 33.7484ZM10.443 33.8152C10.8719 33.8152 11.6914 33.6625 12.5036 33.4453C13.3399 33.2216 14.3318 32.8863 15.1015 32.4485L14.1126 30.7101C13.5604 31.0242 12.7582 31.3069 11.9868 31.5132C11.1914 31.7259 10.5898 31.8152 10.443 31.8152V33.8152ZM15.1025 32.4479C15.4949 32.2241 15.8633 32.0147 16.1537 31.7987C16.4686 31.5645 16.7525 31.2804 16.9466 30.8748C17.1297 30.4923 17.1929 30.0828 17.2218 29.6748C17.2506 29.2688 17.25 28.7647 17.25 28.164H15.25C15.25 28.7939 15.2494 29.2147 15.2268 29.5334C15.2044 29.85 15.1649 29.9648 15.1426 30.0113C15.1314 30.0348 15.1072 30.0845 14.9601 30.194C14.7884 30.3216 14.5407 30.4659 14.1115 30.7107L15.1025 32.4479ZM17.25 28.164V13.8086H15.25V28.164H17.25ZM17.25 13.8086C17.25 13.9211 17.2277 14.1195 17.0945 14.3224C16.9583 14.5298 16.7791 14.6308 16.6705 14.6765C16.6187 14.6983 16.5764 14.7104 16.5538 14.7164C16.5312 14.7223 16.515 14.7255 16.5147 14.7256C16.4957 14.7293 16.5558 14.718 16.5935 14.7091L16.1378 12.7617C16.1419 12.7608 16.1707 12.7548 16.1238 12.7641C16.1075 12.7674 16.0069 12.7859 15.8947 12.8331C15.7656 12.8875 15.5702 13 15.4228 13.2245C15.2784 13.4443 15.25 13.6653 15.25 13.8086H17.25ZM16.6005 14.7075L31.288 11.1582L30.8182 9.2142L16.1307 12.7634L16.6005 14.7075ZM31.2875 11.1584C31.1766 11.1851 31.0622 11.1884 30.951 11.1687L31.3003 9.1994C31.1411 9.17115 30.9769 9.17593 30.8187 9.21407L31.2875 11.1584ZM30.951 11.1687C30.8398 11.1489 30.7268 11.1052 30.6227 11.0332L31.7604 9.38834C31.6178 9.28971 31.4596 9.22766 31.3003 9.1994L30.951 11.1687ZM30.6227 11.0332C30.5182 10.9609 30.4216 10.8591 30.3523 10.7277L32.1207 9.79358C32.0307 9.62325 31.9034 9.48723 31.7604 9.38834L30.6227 11.0332ZM30.3523 10.7277C30.2823 10.5953 30.2451 10.4418 30.2516 10.2819L32.2499 10.364C32.2583 10.1612 32.2112 9.96499 32.1207 9.79358L30.3523 10.7277ZM30.2508 10.3229V20.9556H32.2508V10.3229H30.2508ZM30.2508 20.9528C30.2514 20.7382 30.3296 20.5451 30.449 20.3999L31.9937 21.6703C32.1513 21.4787 32.25 21.23 32.2508 20.9583L30.2508 20.9528ZM30.449 20.3999C30.5665 20.2571 30.7153 20.1688 30.8611 20.1258L31.4279 22.0437C31.6356 21.9824 31.8382 21.8594 31.9937 21.6703L30.449 20.3999ZM30.8616 20.1256C30.1683 20.3301 29.3517 20.5722 28.7743 20.7547L29.3773 22.6617C29.9327 22.486 30.7301 22.2496 31.4274 22.0439L30.8616 20.1256ZM28.7744 20.7547C27.6891 21.0978 26.1774 21.4576 25.0345 22.0772C24.4333 22.4032 23.8533 22.8371 23.425 23.4483C22.9873 24.073 22.75 24.8235 22.75 25.7031H24.75C24.75 25.2035 24.8779 24.8601 25.0629 24.596C25.2575 24.3183 25.5581 24.0684 25.9878 23.8354C26.9066 23.3373 28.0578 23.0788 29.3772 22.6617L28.7744 20.7547ZM22.75 25.7031C22.75 27.3352 23.4486 28.5405 24.3852 29.3308C25.2914 30.0955 26.4055 30.4631 27.3067 30.5178L27.4277 28.5214C26.9195 28.4906 26.225 28.2663 25.675 27.8022C25.1553 27.3637 24.75 26.7035 24.75 25.7031H22.75ZM27.301 30.5174C27.9289 30.5591 28.5603 30.5332 29.1816 30.4402L28.8856 28.4623C28.4065 28.534 27.9186 28.554 27.4334 28.5218L27.301 30.5174ZM29.1666 30.4424C29.9764 30.3337 31.2786 29.9905 32.5006 29.3087L31.526 27.5622C30.5526 28.1053 29.497 28.3801 28.9006 28.4601L29.1666 30.4424ZM32.5006 29.3086C33.2649 28.8821 34.0622 28.4805 34.4443 27.6346C34.6272 27.2297 34.6911 26.788 34.7207 26.3331C34.7505 25.8769 34.75 25.3052 34.75 24.6094H32.75C32.75 25.3323 32.7495 25.8271 32.725 26.2029C32.7004 26.58 32.6557 26.7357 32.6216 26.8114C32.5694 26.9268 32.4984 27.0195 31.5259 27.5622L32.5006 29.3086ZM34.75 24.6094V2.32421H32.75V24.6094H34.75ZM34.75 2.32665C34.7505 2.12691 34.6977 1.93622 34.6043 1.77109L32.8633 2.75549C32.7914 2.62823 32.7496 2.47924 32.75 2.32176L34.75 2.32665ZM34.6043 1.77109C34.5115 1.60697 34.3839 1.47667 34.2419 1.38231L33.1346 3.0478C33.0312 2.97901 32.9347 2.88172 32.8633 2.75549L34.6043 1.77109ZM34.2419 1.38231C34.1003 1.28817 33.9443 1.22936 33.7874 1.20321L33.4586 3.17601C33.3491 3.15776 33.2378 3.11637 33.1346 3.0478L34.2419 1.38231ZM33.7874 1.20321C33.6304 1.17705 33.4689 1.18289 33.3133 1.22108L33.7899 3.16347C33.6807 3.19025 33.5681 3.19426 33.4586 3.17601L33.7874 1.20321Z" fill="#2D1300" mask="url(#path-1-inside-1_15_290)"/>
</svg>
