<svg width="28" height="31" viewBox="0 0 28 31" fill="none" xmlns="http://www.w3.org/2000/svg">
<path d="M7.78979 22.8299L7.78979 22.8299L7.75 22.2218H8.25V22.2212V5.52324C10.1645 5.05218 14.6831 3.92121 18.9016 2.86537C22.5098 1.96225 25.8985 1.11411 27.25 0.780914V22.6094C27.25 23.3255 27.2497 23.8396 27.2239 24.2354C27.1981 24.632 27.1486 24.8592 27.0772 25.0172C26.9426 25.3152 26.69 25.4851 25.7696 25.9988C24.7341 26.5766 23.6169 26.8685 22.9671 26.9557L22.9671 26.9556L22.9596 26.9568C22.445 27.0338 21.9212 27.0553 21.4003 27.0207L21.3974 27.0205C20.791 26.9838 19.9916 26.7236 19.3525 26.1844C18.7286 25.6579 18.25 24.8614 18.25 23.7031C18.25 23.1085 18.4052 22.6634 18.6535 22.3091C18.9065 21.948 19.2769 21.6521 19.7495 21.3959C20.4784 21.0007 21.3564 20.7423 22.2801 20.4704C22.5917 20.3787 22.9085 20.2855 23.2265 20.1849L23.2265 20.1849C23.7875 20.0076 24.5897 19.7697 25.286 19.5643L25.2862 19.5643C25.4055 19.529 25.5202 19.4588 25.6075 19.3527C25.6958 19.2453 25.7504 19.1071 25.7508 18.9569V18.9556V8.32923C25.7527 8.22213 25.7269 8.11853 25.6786 8.02712C25.6284 7.9322 25.5571 7.85565 25.476 7.79956C25.395 7.74358 25.3047 7.70798 25.213 7.69172C25.1213 7.67546 25.0269 7.67822 24.9359 7.70015L24.9357 7.70021L10.2517 11.2486C10.2518 11.2486 10.2515 11.2486 10.2504 11.2489C10.2495 11.2491 10.2479 11.2494 10.2456 11.2498L10.2362 11.2516L10.2215 11.2545L10.2198 11.2548C10.2026 11.2582 10.1478 11.2691 10.0887 11.294C10.019 11.3233 9.91718 11.3825 9.84069 11.4989C9.76569 11.6131 9.75 11.7293 9.75 11.8086V26.164C9.75 26.7866 9.7497 27.2283 9.72558 27.5688C9.70153 27.9082 9.65611 28.0967 9.59363 28.2272C9.53667 28.3462 9.44756 28.4545 9.25847 28.5951C9.05716 28.7449 8.77937 28.9053 8.35962 29.1448C7.75306 29.4898 6.90353 29.7856 6.11602 29.9962C5.32269 30.2084 4.67066 30.3136 4.44817 30.3152C4.26767 30.3107 4.08789 30.2945 3.91037 30.2666L3.89968 30.2649L3.88892 30.2637C3.13761 30.1788 2.34421 29.8893 1.74813 29.3693C1.16549 28.861 0.75 28.1162 0.75 27.05C0.75 25.8677 1.48903 25.1174 2.53499 24.5711C3.30018 24.1714 4.12551 23.9298 4.83472 23.7222C5.12015 23.6387 5.38677 23.5606 5.62309 23.48L7.78979 22.8299ZM27.25 0.322983V0.324206V0.322983Z" fill="#776353" fill-opacity="0.5" stroke="#2D1300"/>
</svg>
