<svg width="80" height="33" viewBox="0 0 80 33" fill="none" xmlns="http://www.w3.org/2000/svg">
<g clip-path="url(#clip0_58_42)">
<path d="M39.8459 8.73048L43.6502 8.46887C43.7331 9.14643 43.901 9.66226 44.1538 10.0164C44.5666 10.5903 45.1551 10.8773 45.9192 10.8773C46.4893 10.8773 46.9292 10.7309 47.2389 10.4381C47.3807 10.3165 47.4959 10.1617 47.576 9.98507C47.6561 9.80838 47.6991 9.61429 47.7019 9.41703C47.6996 9.2279 47.6595 9.04163 47.5845 8.87127C47.5095 8.7009 47.4014 8.55057 47.2678 8.43082C46.9784 8.14119 46.2959 7.86689 45.2202 7.60792C43.4664 7.17665 42.2157 6.60268 41.468 5.88602C41.1042 5.55211 40.8137 5.13271 40.6181 4.65895C40.4224 4.18519 40.3266 3.66923 40.3379 3.14937C40.3407 2.41472 40.5421 1.69745 40.9167 1.08816C41.3446 0.401452 41.9489 -0.130533 42.6532 -0.4403C43.4249 -0.811318 44.4861 -0.996826 45.8367 -0.996826C47.4902 -0.996826 48.751 -0.659634 49.6193 0.0147507C50.4875 0.689135 51.0041 1.76096 51.169 3.23023L47.3995 3.47124C47.303 2.83702 47.0927 2.37298 46.7686 2.07913C46.4444 1.78527 46.0007 1.63888 45.4373 1.63993C44.9728 1.63993 44.6226 1.74934 44.3882 1.96497C44.2774 2.05826 44.1879 2.17839 44.1267 2.31593C44.0654 2.45348 44.0341 2.6047 44.0351 2.75774C44.0386 2.8765 44.0664 2.99288 44.1165 3.09827C44.1666 3.20366 44.2377 3.29536 44.3245 3.36659C44.5126 3.55368 44.9598 3.72809 45.6659 3.88982C47.4139 4.30206 48.6681 4.71959 49.4282 5.1424C50.1884 5.56521 50.7383 6.08897 51.0779 6.71367C51.4244 7.34739 51.6033 8.07423 51.5945 8.81293C51.5986 9.70739 51.3593 10.5829 50.9071 11.3276C50.4365 12.1041 49.7669 12.7108 48.9826 13.0717C48.1577 13.4681 47.1188 13.6663 45.8656 13.6663C43.6651 13.6663 42.1409 13.2022 41.2929 12.2742C40.445 11.3461 39.9626 10.1649 39.8459 8.73048ZM0.907299 13.4285V-0.757409H7.5724C8.80818 -0.757409 9.75262 -0.641664 10.4057 -0.410175C11.049 -0.185032 11.6052 0.269242 11.9859 0.880458C12.4002 1.55887 12.6111 2.36197 12.5893 3.17791C12.6061 3.88995 12.446 4.59361 12.1263 5.21375C11.8194 5.78862 11.3848 6.26914 10.863 6.61061C10.4243 6.87576 9.95081 7.06509 9.45935 7.1719C9.82708 7.29055 10.1774 7.46621 10.4998 7.69354C10.7393 7.91173 10.9549 8.15968 11.1423 8.4324C11.353 8.70345 11.5396 8.996 11.6994 9.30604L13.6355 13.4285H9.1164L6.98056 9.08882C6.70948 8.52754 6.4683 8.16286 6.25703 7.99479C5.96914 7.77619 5.62617 7.66145 5.27593 7.66658H4.91996V13.4285H0.907299ZM4.91996 4.98702H6.61011C6.9678 4.95775 7.32233 4.89301 7.66935 4.79358C7.92867 4.73906 8.15995 4.58011 8.31763 4.34804C8.48437 4.11362 8.57319 3.82391 8.56941 3.52673C8.5803 3.32943 8.55013 3.13201 8.48119 2.94936C8.41226 2.7667 8.30635 2.60359 8.17148 2.47234C7.90715 2.22711 7.40985 2.1045 6.67957 2.1045H4.91996V4.98702ZM0 25.5674L3.80429 25.3073C3.88725 25.9849 4.05511 26.5007 4.30786 26.8548C4.71593 27.4288 5.30584 27.7158 6.0776 27.7158C6.64774 27.7158 7.08764 27.5689 7.39731 27.275C7.53912 27.1534 7.65431 26.9986 7.73443 26.822C7.81456 26.6453 7.85758 26.4512 7.86036 26.2539C7.85781 26.0648 7.81765 25.8786 7.74267 25.7083C7.6677 25.538 7.55971 25.3876 7.42625 25.2677C7.13684 24.9781 6.45431 24.7043 5.37867 24.4464C3.62485 24.013 2.37412 23.439 1.62648 22.7245C1.26271 22.3902 0.97225 21.9705 0.776617 21.4965C0.580983 21.0225 0.485191 20.5063 0.496337 19.9863C0.49954 19.2517 0.700924 18.5345 1.07516 17.9251C1.50301 17.2383 2.10739 16.7064 2.81161 16.3966C3.58337 16.0256 4.64454 15.8401 5.99512 15.8401C7.64861 15.8401 8.90947 16.1773 9.7777 16.8516C10.6459 17.526 11.1625 18.5979 11.3275 20.0671L7.56516 20.3097C7.46869 19.6755 7.25839 19.2109 6.93425 18.916C6.61011 18.6211 6.16683 18.4763 5.60441 18.4816C5.14039 18.4816 4.79069 18.5873 4.55531 18.7987C4.44458 18.892 4.35508 19.0121 4.29382 19.1497C4.23256 19.2872 4.20121 19.4384 4.20223 19.5915C4.20552 19.7105 4.23325 19.8272 4.28336 19.9329C4.33346 20.0385 4.40465 20.1305 4.49163 20.2019C4.67975 20.389 5.12689 20.5629 5.83305 20.7235C7.58108 21.1358 8.83519 21.5533 9.59537 21.9761C10.3556 22.3989 10.9054 22.9227 11.245 23.5474C11.5913 24.1812 11.7702 24.908 11.7616 25.6467C11.7659 26.5411 11.5266 27.4167 11.0743 28.1613C10.6036 28.9378 9.93404 29.5446 9.14968 29.9054C8.32486 30.3018 7.28588 30.5 6.03274 30.5C3.83226 30.5 2.30804 30.036 1.46007 29.1079C0.612101 28.1798 0.125411 26.9996 0 25.5674ZM23.5869 24.4559L27.0916 25.6165C26.8978 26.5907 26.5186 27.5092 25.9788 28.3119C25.487 29.0213 24.84 29.5834 24.0977 29.9466C23.3471 30.3134 22.3921 30.4968 21.2325 30.4968C19.826 30.4968 18.677 30.2733 17.7857 29.8261C16.8943 29.379 16.1225 28.591 15.4704 27.4621C14.8221 26.3342 14.4984 24.8909 14.4994 23.132C14.4994 20.7875 15.0686 18.9847 16.2069 17.7237C17.3453 16.4627 18.9563 15.8327 21.0401 15.8337C22.6714 15.8337 23.953 16.1952 24.8849 16.9182C25.8168 17.6412 26.5094 18.7511 26.9628 20.2479L23.432 21.1088C23.3491 20.7714 23.2183 20.4503 23.0442 20.1575C22.8304 19.8322 22.5492 19.567 22.2238 19.3838C21.8865 19.1996 21.5138 19.1066 21.137 19.1126C20.2312 19.1126 19.5371 19.5122 19.0547 20.3113C18.6881 20.9043 18.5053 21.835 18.5063 23.1034C18.5063 24.6742 18.7243 25.7513 19.1604 26.3348C19.5964 26.9183 20.2085 27.2095 20.9967 27.2084C21.7607 27.2084 22.3395 26.9732 22.7331 26.5028C23.1267 26.0325 23.4113 25.3502 23.5869 24.4559ZM30.1724 16.0795H34.1706V21.0391H38.5407V16.0795H42.5562V30.259H38.5407V24.5273H34.1706V30.2638H30.1724V16.0795ZM45.0451 23.178C45.0451 20.8652 45.6336 19.0629 46.8105 17.7713C47.9875 16.4796 49.6274 15.8348 51.7305 15.8369C53.8837 15.8369 55.543 16.4711 56.7083 17.7395C57.8737 19.008 58.4578 20.7822 58.4607 23.0622C58.4607 24.7207 58.206 26.08 57.6967 27.1402C57.201 28.1865 56.433 29.0479 55.4899 29.6153C54.5252 30.2051 53.3261 30.5 51.8926 30.5C50.4339 30.5 49.2281 30.2453 48.2749 29.7358C47.2957 29.204 46.4854 28.3615 45.9495 27.3178C45.3456 26.2164 45.0442 24.8364 45.0451 23.178ZM49.0433 23.1986C49.0433 24.6308 49.2845 25.6593 49.7669 26.284C50.2492 26.9087 50.91 27.2211 51.7493 27.2211C52.6089 27.2211 53.274 26.9151 53.7448 26.3031C54.2156 25.691 54.4509 24.5917 54.4509 23.0051C54.4509 21.6701 54.2049 20.6945 53.7129 20.0782C53.221 19.462 52.5543 19.1544 51.7131 19.1554C51.3474 19.141 50.9834 19.2174 50.6483 19.3788C50.3133 19.5403 50.0159 19.7826 49.7784 20.0877C49.2893 20.722 49.0443 21.7589 49.0433 23.1986Z" fill="#4A2B10"/>
<path d="M56.7648 23.178C56.7648 20.8652 57.3532 19.063 58.5302 17.7713C59.7071 16.4796 61.3471 15.8348 63.4501 15.8369C65.6053 15.8369 67.265 16.4711 68.4294 17.7396C69.5938 19.008 70.176 20.7828 70.176 23.0638C70.176 24.7223 69.9218 26.0816 69.4134 27.1418C68.9173 28.1878 68.1494 29.049 67.2067 29.6169C66.242 30.2067 65.0428 30.5016 63.6093 30.5016C62.1497 30.5016 60.9438 30.2469 59.9917 29.7374C59.0123 29.2053 58.2016 28.3628 57.6648 27.3194C57.0648 26.2169 56.7648 24.8365 56.7648 23.178ZM60.7644 23.1986C60.7644 24.6309 61.0056 25.6594 61.4879 26.2841C61.9703 26.9088 62.6321 27.2217 63.4733 27.2227C64.3328 27.2227 64.998 26.9167 65.4688 26.3047C65.9395 25.6927 66.1749 24.5933 66.1749 23.0067C66.1749 21.6717 65.9294 20.6961 65.4384 20.0798C64.9473 19.4636 64.2807 19.156 63.4386 19.157C63.0722 19.1416 62.7074 19.2173 62.3715 19.3785C62.0357 19.5397 61.7375 19.7822 61.4995 20.0878C61.0085 20.722 60.7634 21.7589 60.7644 23.1986Z" fill="#4A2B10"/>
<path d="M69.7592 16.0796H73.7588V26.7677H79.9999V30.2559H69.7592V16.0796Z" fill="#4A2B10"/>
</g>
<defs>
<clipPath id="clip0_58_42">
<rect width="80" height="31.9922" fill="white" transform="translate(0 0.078125)"/>
</clipPath>
</defs>
</svg>
