<svg width="25" height="22" viewBox="0 0 25 22" fill="none" xmlns="http://www.w3.org/2000/svg">
<path d="M18.8371 16.4853C18.8371 19.2444 16.121 21.6 12.6098 21.6C9.09853 21.6 6.38242 19.2444 6.38242 16.4853C6.38242 13.7262 9.09853 11.3706 12.6098 11.3706C16.121 11.3706 18.8371 13.7262 18.8371 16.4853Z" fill="#FFC700" stroke="#4A2B10" stroke-width="0.8"/>
<path d="M15.6304 10.864C15.4897 10.9175 15.3617 10.9693 15.2488 11.0168C15.1774 10.7136 15.1149 10.3011 15.1383 9.83895C15.1854 8.90925 15.5779 7.74567 17.0615 6.8338C18.7512 5.79515 20.5925 4.16179 21.9968 2.80695C22.7024 2.12616 23.3044 1.5092 23.73 1.06227C23.772 1.01818 23.8123 0.975729 23.8508 0.935031C23.8565 0.951613 23.8622 0.968415 23.8679 0.985432C24.0327 1.47562 24.2284 2.13616 24.3581 2.82893C24.489 3.52796 24.5461 4.22641 24.457 4.80508C24.3683 5.38055 24.1489 5.76687 23.788 5.97435C23.1467 6.34297 22.7665 6.73639 22.5945 7.1866C22.4289 7.62022 22.4938 8.02483 22.5365 8.29148C22.5373 8.2966 22.5381 8.30166 22.5389 8.30668C22.5881 8.61386 22.5953 8.72474 22.5529 8.82341C22.5184 8.90401 22.3963 9.08313 21.868 9.30729C21.5233 9.45354 20.73 9.67062 19.8685 9.87288C19.0186 10.0724 18.1622 10.2439 17.7173 10.3062C16.9259 10.4169 16.176 10.6565 15.6304 10.864Z" fill="#FFC700" stroke="#4A2B10"/>
<path d="M9.36964 10.864C9.51027 10.9175 9.63832 10.9693 9.75116 11.0168C9.82259 10.7136 9.88511 10.3011 9.8617 9.83895C9.81459 8.90925 9.42206 7.74567 7.93854 6.8338C6.24879 5.79515 4.40754 4.16179 3.00323 2.80695C2.29758 2.12616 1.69565 1.5092 1.26995 1.06227C1.22796 1.01818 1.18767 0.975729 1.14915 0.935031C1.14352 0.951613 1.13784 0.968415 1.13211 0.985432C0.967312 1.47562 0.771583 2.13616 0.641864 2.82893C0.51097 3.52796 0.453858 4.22641 0.543018 4.80508C0.631687 5.38055 0.851092 5.76687 1.21203 5.97435C1.8533 6.34297 2.23353 6.73639 2.40546 7.1866C2.57105 7.62022 2.50622 8.02483 2.46349 8.29148C2.46267 8.2966 2.46185 8.30166 2.46105 8.30668C2.41193 8.61386 2.40474 8.72474 2.44705 8.82341C2.48162 8.90401 2.60368 9.08313 3.13201 9.30729C3.4767 9.45354 4.27003 9.67062 5.13147 9.87288C5.98136 10.0724 6.83776 10.2439 7.28274 10.3062C8.07407 10.4169 8.82404 10.6565 9.36964 10.864Z" fill="#FFC700" stroke="#4A2B10"/>
</svg>
