<svg width="25" height="22" viewBox="0 0 25 22" fill="none" xmlns="http://www.w3.org/2000/svg">
<path d="M18.298 16.4853C18.298 19.2732 15.786 21.6 12.6008 21.6C9.41564 21.6 6.90366 19.2732 6.90366 16.4853C6.90366 13.6974 9.41564 11.3706 12.6008 11.3706C15.786 11.3706 18.298 13.6974 18.298 16.4853Z" fill="#776353" fill-opacity="0.5" stroke="#4A2B10" stroke-width="0.8"/>
<path d="M23.6243 1.08648C23.6845 1.02544 23.7414 0.967472 23.7948 0.912845C23.8061 0.944777 23.8176 0.977571 23.8293 1.01118C24.0042 1.51373 24.2119 2.1908 24.3495 2.90081C24.4884 3.61728 24.5488 4.33265 24.4544 4.92511C24.3608 5.51146 24.1291 5.91317 23.7355 6.13171C23.0605 6.50661 22.6599 6.90642 22.4782 7.36623C22.3023 7.8113 22.3713 8.22721 22.4166 8.50064C22.4175 8.50585 22.4183 8.511 22.4192 8.5161C22.4713 8.83112 22.4787 8.94348 22.434 9.04426C22.3959 9.13015 22.2611 9.31796 21.6942 9.55035C21.3246 9.70183 20.4793 9.92509 19.5657 10.1323C18.6635 10.337 17.7532 10.5131 17.2789 10.5772C16.4439 10.6901 15.6515 10.9345 15.0741 11.1468C14.9079 11.2078 14.7583 11.2667 14.6292 11.3197C14.5507 11.0068 14.4798 10.5734 14.5053 10.0864C14.5551 9.13701 14.9699 7.93943 16.554 6.99874C18.3439 5.93582 20.2958 4.26318 21.7858 2.87436C22.5343 2.17673 23.1728 1.54449 23.6243 1.08648Z" fill="#776353" fill-opacity="0.5" stroke="#4A2B10"/>
<path d="M1.34218 1.0693C1.28695 1.01355 1.23456 0.960432 1.18516 0.910153C1.17577 0.936562 1.16624 0.96356 1.1566 0.991123C0.985321 1.48098 0.782014 2.14077 0.647313 2.83248C0.511345 3.53068 0.452394 4.22659 0.544616 4.8021C0.635794 5.3711 0.861273 5.75905 1.24335 5.97023C1.90575 6.33634 2.30099 6.72794 2.4807 7.18042C2.65461 7.6183 2.5864 8.02748 2.54196 8.29414C2.54108 8.2994 2.54021 8.3046 2.53936 8.30975C2.48809 8.61801 2.48196 8.72304 2.52378 8.81681C2.55916 8.89615 2.68789 9.07808 3.24317 9.30462C3.60463 9.45208 4.43256 9.66974 5.3281 9.87191C6.21231 10.0715 7.10428 10.2433 7.56878 10.3058C8.38794 10.416 9.16516 10.6546 9.73143 10.8618C9.89039 10.9199 10.0339 10.976 10.1583 11.0268C10.2338 10.7235 10.3009 10.307 10.2763 9.83996C10.2278 8.91851 9.82364 7.75409 8.27411 6.83827C6.51883 5.80085 4.60505 4.1686 3.14448 2.81368C2.41074 2.13302 1.78483 1.51617 1.34218 1.0693Z" fill="#776353" fill-opacity="0.5" stroke="#4A2B10"/>
</svg>
