<svg width="40" height="33" viewBox="0 0 40 33" fill="none" xmlns="http://www.w3.org/2000/svg">
<path d="M36.8001 5.20096H28.5601V2.43614C28.5601 1.51455 27.8402 0.844238 27.04 0.844238H12.96C12.08 0.844238 11.4399 1.59811 11.4399 2.43614V5.20096H3.19994C1.51994 5.20096 0.239868 6.62515 0.239868 8.38453L3.9564 11.9034H0.239868V29.3296C0.239868 29.6647 0.479825 29.9999 0.879932 29.9999H3.28008V31.5079C3.28008 31.8431 3.52003 32.1782 3.92014 32.1782H8.72007C9.0401 32.1782 9.36013 31.927 9.36013 31.5079V29.9999H30.8801V31.5079C30.8801 31.8431 31.1201 32.1782 31.5202 32.1782H36.3201C36.6402 32.1782 36.9602 31.927 36.9602 31.5079V29.9999H39.3603C39.6804 29.9999 40.0004 29.7486 40.0004 29.3296V11.9034H36.0595L40.0004 8.38453C39.84 6.62515 38.4801 5.20096 36.8001 5.20096ZM12.6401 2.43614C12.6401 2.2687 12.8 2.10098 12.9601 2.10098H27.0401C27.2 2.10098 27.3602 2.26841 27.3602 2.43614V5.20096H12.6402L12.6401 2.43614ZM1.44008 8.3006L38.6404 8.3009L34.4002 11.9034L5.59987 11.9032L1.44008 8.3006ZM6.80001 28.6592V13.1599H13.7601V17.6001C13.7601 17.8514 13.92 18.0192 14.0801 18.1866C14.1602 18.2704 16.4001 19.4434 15.5201 22.4594C15.44 22.6269 15.5201 22.7946 15.6002 22.962C15.6803 23.1295 15.8402 23.2133 16.0003 23.2972C16.0003 23.2972 18.3203 24.0511 19.5204 25.8108L19.6005 25.8946C19.8404 26.1459 20.3203 26.1459 20.5605 25.8108C21.7606 24.0514 24.0806 23.2972 24.0806 23.2972C24.2405 23.2133 24.4006 23.1298 24.4807 22.962C24.5608 22.7946 24.5608 22.6269 24.5608 22.4594C23.6808 19.5272 25.9207 18.2704 26.0008 18.1866C26.2408 18.1027 26.3208 17.8514 26.3208 17.6001V13.1599H33.2809V28.6592H6.80001ZM23.12 22.2083C22.4002 22.4596 21.0399 23.1299 20 24.3028C18.9601 23.1299 17.5999 22.4595 16.88 22.1244C17.3599 19.6109 16.0801 17.9354 15.0399 17.1815V13.1599H25.0399V17.2651C23.9999 17.9354 22.6401 19.6109 23.12 22.2083ZM5.59987 13.16V28.6593H1.35994V13.16H5.59987ZM8.00001 30.7539H4.40015V29.9161H8.00001V30.7539ZM35.6 30.7539H32.0002V29.9161H35.6V30.7539ZM38.6402 28.6593H34.4002V13.16H38.6402V28.6593Z" fill="#4A2B10"/>
<path d="M20.0001 14.8357C19.6801 14.8357 19.36 15.087 19.36 15.506V19.8624C19.36 20.1976 19.6 20.5327 20.0001 20.5327C20.3201 20.5327 20.6402 20.2815 20.6402 19.8624V15.506C20.6402 15.087 20.3201 14.8357 20.0001 14.8357Z" fill="#4A2B10"/>
<path d="M20.0001 14.8357C19.68 14.8357 19.36 15.087 19.36 15.506V19.8624C19.36 20.1976 19.6 20.5327 20.0001 20.5327C20.3201 20.5327 20.6401 20.2814 20.6401 19.8624V15.506C20.6401 15.087 20.3201 14.8357 20.0001 14.8357Z" fill="#4A2B10"/>
</svg>
