<svg width="40" height="32" viewBox="0 0 40 32" fill="none" xmlns="http://www.w3.org/2000/svg">
<path d="M23.2787 21.5935C23.2262 21.6137 23.1665 21.6374 23.1006 21.6645L23.0445 21.3336L23.2146 21.3022C23.2331 21.3979 23.2544 21.495 23.2787 21.5935ZM13.5202 16.7559C13.5202 17.0072 13.6801 17.1749 13.8403 17.3423L6.56014 13.3156V12.3156H7.56014H12.5202H13.5202V13.3156V16.7559Z" fill="#4A2B10" stroke="#4A2B10" stroke-width="2"/>
<path d="M19.7602 13.9915C19.4402 13.9915 19.1201 14.2428 19.1201 14.6618V19.0182C19.1201 19.3533 19.3601 19.6885 19.7602 19.6885C20.0802 19.6885 20.4003 19.4372 20.4003 19.0182V14.6618C20.4003 14.2427 20.0802 13.9915 19.7602 13.9915Z" fill="#4A2B10"/>
</svg>
