<svg width="80" height="32" viewBox="0 0 80 32" fill="none" xmlns="http://www.w3.org/2000/svg">
<g clip-path="url(#clip0_21_269)">
<path d="M39.8459 9.73048L43.6502 9.46887C43.7331 10.1464 43.901 10.6623 44.1538 11.0164C44.5666 11.5903 45.1551 11.8773 45.9192 11.8773C46.4893 11.8773 46.9292 11.7309 47.2389 11.4381C47.3807 11.3165 47.4959 11.1617 47.576 10.9851C47.6561 10.8084 47.6991 10.6143 47.7019 10.417C47.6996 10.2279 47.6595 10.0416 47.5845 9.87127C47.5095 9.7009 47.4014 9.55057 47.2678 9.43082C46.9784 9.14119 46.2959 8.86689 45.2202 8.60792C43.4664 8.17665 42.2157 7.60268 41.468 6.88602C41.1042 6.55211 40.8137 6.13271 40.6181 5.65895C40.4224 5.18519 40.3266 4.66923 40.3379 4.14937C40.3407 3.41472 40.5421 2.69745 40.9167 2.08816C41.3446 1.40145 41.9489 0.869467 42.6532 0.5597C43.4249 0.188682 44.4861 0.00317383 45.8367 0.00317383C47.4902 0.00317383 48.751 0.340366 49.6193 1.01475C50.4875 1.68914 51.0041 2.76096 51.169 4.23023L47.3995 4.47124C47.303 3.83702 47.0927 3.37298 46.7686 3.07913C46.4444 2.78527 46.0007 2.63888 45.4373 2.63993C44.9728 2.63993 44.6226 2.74934 44.3882 2.96497C44.2774 3.05826 44.1879 3.17839 44.1267 3.31593C44.0654 3.45348 44.0341 3.6047 44.0351 3.75774C44.0386 3.8765 44.0664 3.99288 44.1165 4.09827C44.1666 4.20366 44.2377 4.29536 44.3245 4.36659C44.5126 4.55368 44.9598 4.72809 45.6659 4.88982C47.4139 5.30206 48.6681 5.71959 49.4282 6.1424C50.1884 6.56521 50.7383 7.08897 51.0779 7.71367C51.4244 8.34739 51.6033 9.07423 51.5945 9.81293C51.5986 10.7074 51.3593 11.5829 50.9071 12.3276C50.4365 13.1041 49.7669 13.7108 48.9826 14.0717C48.1577 14.4681 47.1188 14.6663 45.8656 14.6663C43.6651 14.6663 42.1409 14.2022 41.2929 13.2742C40.445 12.3461 39.9626 11.1649 39.8459 9.73048ZM0.907299 14.4285V0.242591H7.5724C8.80818 0.242591 9.75262 0.358336 10.4057 0.589825C11.049 0.814968 11.6052 1.26924 11.9859 1.88046C12.4002 2.55887 12.6111 3.36197 12.5893 4.17791C12.6061 4.88995 12.446 5.59361 12.1263 6.21375C11.8194 6.78862 11.3848 7.26914 10.863 7.61061C10.4243 7.87576 9.95081 8.06509 9.45935 8.1719C9.82708 8.29055 10.1774 8.46621 10.4998 8.69354C10.7393 8.91173 10.9549 9.15968 11.1423 9.4324C11.353 9.70345 11.5396 9.996 11.6994 10.306L13.6355 14.4285H9.1164L6.98056 10.0888C6.70948 9.52754 6.4683 9.16286 6.25703 8.99479C5.96914 8.77619 5.62617 8.66145 5.27593 8.66658H4.91996V14.4285H0.907299ZM4.91996 5.98702H6.61011C6.9678 5.95775 7.32233 5.89301 7.66935 5.79358C7.92867 5.73906 8.15995 5.58011 8.31763 5.34804C8.48437 5.11362 8.57319 4.82391 8.56941 4.52673C8.5803 4.32943 8.55013 4.13201 8.48119 3.94936C8.41226 3.7667 8.30635 3.60359 8.17148 3.47234C7.90715 3.22711 7.40985 3.1045 6.67957 3.1045H4.91996V5.98702ZM0 26.5674L3.80429 26.3073C3.88725 26.9849 4.05511 27.5007 4.30786 27.8548C4.71593 28.4288 5.30584 28.7158 6.0776 28.7158C6.64774 28.7158 7.08764 28.5689 7.39731 28.275C7.53912 28.1534 7.65431 27.9986 7.73443 27.822C7.81456 27.6453 7.85758 27.4512 7.86036 27.2539C7.85781 27.0648 7.81765 26.8786 7.74267 26.7083C7.6677 26.538 7.55971 26.3876 7.42625 26.2677C7.13684 25.9781 6.45431 25.7043 5.37867 25.4464C3.62485 25.013 2.37412 24.439 1.62648 23.7245C1.26271 23.3902 0.97225 22.9705 0.776617 22.4965C0.580983 22.0225 0.485191 21.5063 0.496337 20.9863C0.49954 20.2517 0.700924 19.5345 1.07516 18.9251C1.50301 18.2383 2.10739 17.7064 2.81161 17.3966C3.58337 17.0256 4.64454 16.8401 5.99512 16.8401C7.64861 16.8401 8.90947 17.1773 9.7777 17.8516C10.6459 18.526 11.1625 19.5979 11.3275 21.0671L7.56516 21.3097C7.46869 20.6755 7.25839 20.2109 6.93425 19.916C6.61011 19.6211 6.16683 19.4763 5.60441 19.4816C5.14039 19.4816 4.79069 19.5873 4.55531 19.7987C4.44458 19.892 4.35508 20.0121 4.29382 20.1497C4.23256 20.2872 4.20121 20.4384 4.20223 20.5915C4.20552 20.7105 4.23325 20.8272 4.28336 20.9329C4.33346 21.0385 4.40465 21.1305 4.49163 21.2019C4.67975 21.389 5.12689 21.5629 5.83305 21.7235C7.58108 22.1358 8.83519 22.5533 9.59537 22.9761C10.3556 23.3989 10.9054 23.9227 11.245 24.5474C11.5913 25.1812 11.7702 25.908 11.7616 26.6467C11.7659 27.5411 11.5266 28.4167 11.0743 29.1613C10.6036 29.9378 9.93404 30.5446 9.14968 30.9054C8.32486 31.3018 7.28588 31.5 6.03274 31.5C3.83226 31.5 2.30804 31.036 1.46007 30.1079C0.612101 29.1798 0.125411 27.9996 0 26.5674ZM23.5869 25.4559L27.0916 26.6165C26.8978 27.5907 26.5186 28.5092 25.9788 29.3119C25.487 30.0213 24.84 30.5834 24.0977 30.9466C23.3471 31.3134 22.3921 31.4968 21.2325 31.4968C19.826 31.4968 18.677 31.2733 17.7857 30.8261C16.8943 30.379 16.1225 29.591 15.4704 28.4621C14.8221 27.3342 14.4984 25.8909 14.4994 24.132C14.4994 21.7875 15.0686 19.9847 16.2069 18.7237C17.3453 17.4627 18.9563 16.8327 21.0401 16.8337C22.6714 16.8337 23.953 17.1952 24.8849 17.9182C25.8168 18.6412 26.5094 19.7511 26.9628 21.2479L23.432 22.1088C23.3491 21.7714 23.2183 21.4503 23.0442 21.1575C22.8304 20.8322 22.5492 20.567 22.2238 20.3838C21.8865 20.1996 21.5138 20.1066 21.137 20.1126C20.2312 20.1126 19.5371 20.5122 19.0547 21.3113C18.6881 21.9043 18.5053 22.835 18.5063 24.1034C18.5063 25.6742 18.7243 26.7513 19.1604 27.3348C19.5964 27.9183 20.2085 28.2095 20.9967 28.2084C21.7607 28.2084 22.3395 27.9732 22.7331 27.5028C23.1267 27.0325 23.4113 26.3502 23.5869 25.4559ZM30.1724 17.0795H34.1706V22.0391H38.5407V17.0795H42.5562V31.259H38.5407V25.5273H34.1706V31.2638H30.1724V17.0795ZM45.0451 24.178C45.0451 21.8652 45.6336 20.0629 46.8105 18.7713C47.9875 17.4796 49.6274 16.8348 51.7305 16.8369C53.8837 16.8369 55.543 17.4711 56.7083 18.7395C57.8737 20.008 58.4578 21.7822 58.4607 24.0622C58.4607 25.7207 58.206 27.08 57.6967 28.1402C57.201 29.1865 56.433 30.0479 55.4899 30.6153C54.5252 31.2051 53.3261 31.5 51.8926 31.5C50.4339 31.5 49.2281 31.2453 48.2749 30.7358C47.2957 30.204 46.4854 29.3615 45.9495 28.3178C45.3456 27.2164 45.0442 25.8364 45.0451 24.178ZM49.0433 24.1986C49.0433 25.6308 49.2845 26.6593 49.7669 27.284C50.2492 27.9087 50.91 28.2211 51.7493 28.2211C52.6089 28.2211 53.274 27.9151 53.7448 27.3031C54.2156 26.691 54.4509 25.5917 54.4509 24.0051C54.4509 22.6701 54.2049 21.6945 53.7129 21.0782C53.221 20.462 52.5543 20.1544 51.7131 20.1554C51.3474 20.141 50.9834 20.2174 50.6483 20.3788C50.3133 20.5403 50.0159 20.7826 49.7784 21.0877C49.2893 21.722 49.0443 22.7589 49.0433 24.1986Z" fill="#4A2B10"/>
<path d="M56.7648 24.178C56.7648 21.8652 57.3532 20.063 58.5302 18.7713C59.7071 17.4796 61.3471 16.8348 63.4501 16.8369C65.6053 16.8369 67.265 17.4711 68.4294 18.7396C69.5938 20.008 70.176 21.7828 70.176 24.0638C70.176 25.7223 69.9218 27.0816 69.4134 28.1418C68.9173 29.1878 68.1494 30.049 67.2067 30.6169C66.242 31.2067 65.0428 31.5016 63.6093 31.5016C62.1497 31.5016 60.9438 31.2469 59.9917 30.7374C59.0123 30.2053 58.2016 29.3628 57.6648 28.3194C57.0648 27.2169 56.7648 25.8365 56.7648 24.178ZM60.7644 24.1986C60.7644 25.6309 61.0056 26.6594 61.4879 27.2841C61.9703 27.9088 62.6321 28.2217 63.4733 28.2227C64.3328 28.2227 64.998 27.9167 65.4688 27.3047C65.9395 26.6927 66.1749 25.5933 66.1749 24.0067C66.1749 22.6717 65.9294 21.6961 65.4384 21.0798C64.9473 20.4636 64.2807 20.156 63.4386 20.157C63.0722 20.1416 62.7074 20.2173 62.3715 20.3785C62.0357 20.5397 61.7375 20.7822 61.4995 21.0878C61.0085 21.722 60.7634 22.7589 60.7644 24.1986Z" fill="#4A2B10"/>
<path d="M69.7592 17.0796H73.7588V27.7677H79.9999V31.2559H69.7592V17.0796Z" fill="#4A2B10"/>
</g>
<defs>
<clipPath id="clip0_21_269">
<rect width="80" height="31.5" fill="white"/>
</clipPath>
</defs>
</svg>
