<svg width="24" height="23" viewBox="0 0 24 23" fill="none" xmlns="http://www.w3.org/2000/svg">
<path d="M9.9375 1.86875C8.39009 1.86875 6.87742 2.34298 5.59079 3.23148C4.30417 4.11997 3.30136 5.38282 2.70919 6.86033C2.11702 8.33785 1.96208 9.96366 2.26397 11.5322C2.56585 13.1007 3.31101 14.5415 4.40519 15.6723C5.49938 16.8031 6.89346 17.5733 8.41114 17.8853C9.92882 18.1973 11.5019 18.0371 12.9316 17.4251C14.3612 16.8131 15.5831 15.7767 16.4428 14.447C17.3025 13.1173 17.7614 11.5539 17.7614 9.95469C17.7614 8.89283 17.559 7.84137 17.1658 6.86033C16.7726 5.8793 16.1963 4.98792 15.4698 4.23707C14.7433 3.48622 13.8808 2.89061 12.9316 2.48426C11.9823 2.0779 10.9649 1.86875 9.9375 1.86875V1.86875Z" stroke="#776353" stroke-width="2" stroke-miterlimit="10"/>
<path d="M15.7614 15.7541L21.451 21.6344" stroke="#776353" stroke-miterlimit="10" stroke-linecap="round"/>
</svg>
