<svg width="45" height="30" viewBox="0 0 45 30" fill="none" xmlns="http://www.w3.org/2000/svg">
<path d="M12.0475 0V10.385H32.9537V0H12.0475ZM7.65875 0C3.4175 0.0675 0 3.34375 0 7.375V10.3862H9.98375V0H7.65875ZM35.015 0V10.385H45V7.25C44.9287 3.235 41.4687 0 37.2125 0H35.015ZM19.8275 12.425V14.99C19.8512 16.3612 21.0363 17.47 22.49 17.47C23.9587 17.47 25.1537 16.3387 25.1537 14.9487V12.425H23.425V13.9975C23.4112 14.475 22.9975 14.8575 22.49 14.8575C21.975 14.8575 21.5562 14.4613 21.5562 13.9725V12.4263L19.8275 12.425ZM0 12.3375V15.71H2.64875V17.6625H0V20.1475H2.64875V22.1H0V24.5863H2.64875V26.5388H0V28.545C0.01625 29.35 0.7125 30 1.5675 30H9.985V12.3375H0ZM35.0163 12.3375V30H43.4625C44.315 29.985 45 29.3263 45 28.5163V26.5375H42.3512V24.585H45V22.1H42.3512V20.1475H45V17.6625H42.3512V15.71H45V12.3375H35.0163ZM12.0475 12.3375V30H32.9537V12.3375H27.235V14.9563L27.2337 15.03C27.1912 17.4675 25.0837 19.4375 22.5 19.4375C19.89 19.4375 17.7663 17.4275 17.7663 14.9563V12.3375H12.0475Z" fill="#2D1300"/>
</svg>
