<svg width="31" height="30" viewBox="0 0 31 30" fill="none" xmlns="http://www.w3.org/2000/svg">
<path d="M9.72193 2.8125H4.09693C3.83805 2.8125 3.62818 3.02237 3.62818 3.28125V8.90625C3.62818 9.16513 3.83805 9.375 4.09693 9.375H9.72193C9.98081 9.375 10.1907 9.16513 10.1907 8.90625V3.28125C10.1907 3.02237 9.98081 2.8125 9.72193 2.8125Z" fill="#FFC700"/>
<path d="M18.6282 2.8125H13.0032C12.7443 2.8125 12.5344 3.02237 12.5344 3.28125V8.90625C12.5344 9.16513 12.7443 9.375 13.0032 9.375H18.6282C18.8871 9.375 19.0969 9.16513 19.0969 8.90625V3.28125C19.0969 3.02237 18.8871 2.8125 18.6282 2.8125Z" fill="#FFC700"/>
<path d="M27.5344 2.8125H21.9094C21.6505 2.8125 21.4407 3.02237 21.4407 3.28125V8.90625C21.4407 9.16513 21.6505 9.375 21.9094 9.375H27.5344C27.7933 9.375 28.0032 9.16513 28.0032 8.90625V3.28125C28.0032 3.02237 27.7933 2.8125 27.5344 2.8125Z" fill="#FFC700"/>
<path d="M9.72193 11.7188H4.09693C3.83805 11.7188 3.62818 11.9286 3.62818 12.1875V17.8125C3.62818 18.0714 3.83805 18.2812 4.09693 18.2812H9.72193C9.98081 18.2812 10.1907 18.0714 10.1907 17.8125V12.1875C10.1907 11.9286 9.98081 11.7188 9.72193 11.7188Z" fill="#FFC700"/>
<path d="M18.6282 11.7188H13.0032C12.7443 11.7188 12.5344 11.9286 12.5344 12.1875V17.8125C12.5344 18.0714 12.7443 18.2812 13.0032 18.2812H18.6282C18.8871 18.2812 19.0969 18.0714 19.0969 17.8125V12.1875C19.0969 11.9286 18.8871 11.7188 18.6282 11.7188Z" fill="#FFC700"/>
<path d="M27.5344 11.7188H21.9094C21.6505 11.7188 21.4407 11.9286 21.4407 12.1875V17.8125C21.4407 18.0714 21.6505 18.2812 21.9094 18.2812H27.5344C27.7933 18.2812 28.0032 18.0714 28.0032 17.8125V12.1875C28.0032 11.9286 27.7933 11.7188 27.5344 11.7188Z" fill="#FFC700"/>
<path d="M9.72193 20.625H4.09693C3.83805 20.625 3.62818 20.8349 3.62818 21.0938V26.7188C3.62818 26.9776 3.83805 27.1875 4.09693 27.1875H9.72193C9.98081 27.1875 10.1907 26.9776 10.1907 26.7188V21.0938C10.1907 20.8349 9.98081 20.625 9.72193 20.625Z" fill="#FFC700"/>
<path d="M18.6282 20.625H13.0032C12.7443 20.625 12.5344 20.8349 12.5344 21.0938V26.7188C12.5344 26.9776 12.7443 27.1875 13.0032 27.1875H18.6282C18.8871 27.1875 19.0969 26.9776 19.0969 26.7188V21.0938C19.0969 20.8349 18.8871 20.625 18.6282 20.625Z" fill="#FFC700"/>
<path d="M27.5344 20.625H21.9094C21.6505 20.625 21.4407 20.8349 21.4407 21.0938V26.7188C21.4407 26.9776 21.6505 27.1875 21.9094 27.1875H27.5344C27.7933 27.1875 28.0032 26.9776 28.0032 26.7188V21.0938C28.0032 20.8349 27.7933 20.625 27.5344 20.625Z" fill="#FFC700"/>
</svg>
